<svg width="24" height="24" viewBox="0 0 24 24" fill="none" xmlns="http://www.w3.org/2000/svg">
<path d="M10 5L9 4V3M14 5L15 4V3M12 9V20M12 9C14.7614 9 17 11.2386 17 14M12 9C9.23858 9 7 11.2386 7 14M12 9C13.0731 9.00288 14.1163 9.35378 14.973 10H15V8C15 7.20435 14.6839 6.44129 14.1213 5.87868C13.5587 5.31607 12.7956 5 12 5C11.2044 5 10.4413 5.31607 9.87868 5.87868C9.31607 6.44129 9 7.20435 9 8V10H9.027C9.8837 9.35378 10.9269 9.00288 12 9ZM7 14H5M7 14V16C7 18.7614 9.23858 21 12 21C14.7614 21 17 18.7614 17 16V14M19.025 14H17M7.025 18H6C5.73478 18 5.48043 18.1054 5.29289 18.2929C5.10536 18.4804 5 18.7348 5 19V21M17 18H18.025C18.2902 18 18.5446 18.1054 18.7321 18.2929C18.9196 18.4804 19.025 18.7348 19.025 19V21M16 11H17C17.2652 11 17.5196 10.8946 17.7071 10.7071C17.8946 10.5196 18 10.2652 18 10V8M8.025 11H7C6.73478 11 6.48043 10.8946 6.29289 10.7071C6.10536 10.5196 6 10.2652 6 10V8" stroke="#FAFAFA" stroke-width="2" stroke-linecap="round" stroke-linejoin="round"/>
</svg>
