<svg width="111" height="111" viewBox="0 0 111 111" fill="none" xmlns="http://www.w3.org/2000/svg">
<path fill-rule="evenodd" clip-rule="evenodd" d="M34.3373 14.7072C35.9762 13.5635 38.1644 13.6019 39.7622 14.8024C40.1937 15.1266 40.8809 15.5684 41.7572 16.1317C45.2698 18.3899 51.8213 22.6018 57.1255 29.0256C62.1986 35.1696 66.3861 43.4425 67.4125 54.5752C69.407 50.5053 70.7769 45.3264 71.0832 38.7074C71.1623 37.0001 72.1764 35.4756 73.7205 34.7429C75.2646 34.0101 77.0869 34.1887 78.4594 35.2072C82.7443 38.3869 87.8169 45.632 90.5171 54.1757C93.2733 62.8967 93.814 73.7928 87.7915 83.965C87.7705 84.0005 87.749 84.0356 87.7271 84.0705C84.2568 89.59 79.4396 94.1179 73.7333 97.2118C68.0717 100.281 61.7273 101.835 55.3027 101.721C49.2582 101.965 43.2537 100.646 37.8551 97.8888C32.4111 95.1089 27.7687 90.9628 24.3661 85.8534C24.3164 85.7788 24.2689 85.7027 24.2236 85.6253C10.2593 61.7557 25.8193 39.6299 28.5788 35.8517C28.6894 35.7002 28.8091 35.5556 28.9373 35.4187C30.8388 33.3875 32.1806 30.874 32.8183 28.1323C33.4561 25.3905 33.365 22.5254 32.555 19.8319C31.9794 17.918 32.6983 15.8509 34.3373 14.7072ZM42.2841 27.6859C42.1755 28.5383 42.0235 29.3868 41.8278 30.2279C40.8474 34.4431 38.8052 38.3335 35.8958 41.5178C32.8648 45.7196 21.6803 62.8026 32.1393 80.8371C34.663 84.5862 38.0788 87.6169 42.0618 89.6507C46.0835 91.7043 50.5526 92.6751 55.0431 92.4741C55.1456 92.4695 55.2481 92.4683 55.3506 92.4706C60.2144 92.5765 65.0265 91.4104 69.3245 89.0801C73.6049 86.7593 77.2352 83.3596 79.8632 79.1996C84.1274 71.9569 83.9161 63.9846 81.6971 56.9632C80.8995 54.4396 79.8744 52.1401 78.7789 50.1427C76.3518 59.914 71.4001 66.7476 65.333 71.3524C63.8523 72.4763 61.8426 72.6044 60.2311 71.6776C58.6197 70.7508 57.7197 68.9493 57.9464 67.1043C59.8835 51.3413 55.3705 41.428 49.9928 34.9152C47.4479 31.8331 44.7868 29.5364 42.2841 27.6859Z" fill="#BDF500"/>
</svg>
